<?xml version="1.0" standalone="no"?>
<!DOCTYPE svg PUBLIC "-//W3C//DTD SVG 20010904//EN"
 "http://www.w3.org/TR/2001/REC-SVG-20010904/DTD/svg10.dtd">
<svg version="1.0" xmlns="http://www.w3.org/2000/svg"
 width="16" height="16" viewBox="0 0 1536.000000 1536.000000"
 preserveAspectRatio="xMidYMid meet">
<metadata>
Created by potrace 1.11, written by Peter Selinger 2001-2013
</metadata>
<g transform="translate(0.000000,1536.000000) scale(0.100000,-0.100000)"
fill="#000000" stroke="none">
<path d="M770 12082 c-41 -33 -28 -43 115 -98 24 -9 22 -8 63 -18 17 -4 32
-12 32 -17 0 -5 3 -8 8 -7 8 1 39 -9 64 -23 10 -5 22 -9 27 -9 5 0 22 -5 38
-12 15 -6 31 -11 36 -10 4 1 7 -2 7 -8 0 -5 7 -10 15 -10 8 0 15 -4 15 -10 0
-6 3 -9 8 -8 16 6 152 -100 152 -117 0 -4 7 -13 15 -21 8 -9 15 -13 15 -9 0 3
22 -18 50 -47 67 -72 80 -87 80 -94 0 -3 25 -41 55 -85 30 -43 52 -79 49 -79
-3 0 3 -12 13 -27 10 -16 28 -45 38 -67 11 -21 26 -40 32 -43 7 -3 11 -9 8
-13 -3 -5 1 -14 8 -22 14 -15 19 -105 6 -114 -5 -3 -9 -16 -9 -30 0 -18 4 -23
13 -18 9 6 9 5 0 -8 -7 -8 -10 -18 -6 -21 3 -4 1 -7 -6 -7 -7 0 -9 -4 -6 -10
3 -5 1 -19 -6 -31 -9 -17 -8 -20 3 -13 10 6 11 5 1 -8 -7 -8 -10 -18 -6 -21 3
-4 1 -7 -6 -7 -7 0 -9 -4 -6 -10 3 -5 -1 -21 -10 -34 -9 -14 -16 -27 -16 -30
3 -20 -1 -26 -11 -20 -9 5 -9 2 1 -9 11 -13 11 -17 1 -17 -8 0 -10 -3 -7 -7 4
-3 1 -13 -6 -21 -10 -13 -9 -14 3 -7 12 7 13 6 3 -7 -7 -8 -10 -18 -6 -21 3
-4 2 -7 -4 -7 -5 0 -10 -6 -10 -12 0 -7 -4 -26 -7 -43 -4 -16 -9 -39 -10 -50
-2 -11 -4 -24 -5 -28 0 -5 -6 -5 -13 -1 -6 4 -8 3 -4 -4 3 -6 3 -13 -2 -16 -5
-3 -8 -21 -7 -40 1 -22 -2 -33 -8 -29 -6 4 -8 0 -4 -10 3 -10 2 -17 -3 -17 -6
0 -10 -12 -10 -26 0 -14 -4 -23 -9 -20 -4 3 -7 -6 -5 -19 1 -14 -2 -25 -6 -25
-5 0 -7 -9 -5 -20 2 -11 0 -18 -4 -15 -8 4 -26 -50 -22 -67 0 -5 -4 -8 -10 -8
-5 0 -7 -4 -4 -10 3 -5 0 -10 -7 -10 -10 0 -9 -3 2 -10 12 -8 12 -10 -2 -15
-17 -7 -18 -21 -5 -42 5 -7 5 -17 2 -23 -3 -5 -1 -10 4 -10 12 0 15 -26 4 -33
-5 -2 -3 -2 4 -1 6 2 17 -4 23 -12 7 -8 23 -12 36 -10 37 7 29 -14 -26 -71
-34 -33 -62 -53 -84 -57 -18 -4 -41 -15 -51 -26 -10 -11 -16 -20 -13 -20 3 0
-16 -41 -43 -92 -27 -50 -51 -100 -55 -110 -3 -10 -10 -18 -15 -18 -5 0 -9 -9
-9 -20 0 -11 -4 -20 -9 -20 -5 0 -15 -15 -22 -32 -7 -18 -19 -39 -26 -46 -7
-8 -11 -18 -8 -23 4 -5 2 -9 -4 -9 -6 0 -17 -12 -25 -27 -8 -16 -23 -39 -35
-52 -11 -13 -18 -27 -15 -32 3 -5 -2 -6 -11 -3 -11 5 -14 2 -8 -12 4 -11 3
-15 -4 -11 -7 4 -10 0 -9 -10 3 -17 -39 -84 -57 -91 -4 -2 -5 -8 -1 -13 3 -5
0 -9 -6 -9 -6 0 -8 -4 -5 -10 3 -5 -1 -10 -10 -10 -9 0 -14 -4 -11 -9 3 -4 -4
-17 -15 -27 -11 -10 -17 -24 -14 -33 3 -8 3 -12 -1 -9 -3 4 -17 -6 -31 -22
-24 -29 -105 -89 -126 -93 -6 -1 -19 -10 -29 -20 -10 -10 -23 -15 -27 -12 -5
2 -14 -2 -21 -10 -7 -8 -16 -12 -21 -9 -5 3 -9 1 -9 -4 0 -5 -15 -17 -32 -26
-18 -10 -51 -31 -73 -47 -22 -16 -72 -51 -111 -77 -154 -103 -323 -267 -287
-279 6 -2 9 -12 6 -23 -3 -12 0 -18 9 -16 21 5 52 19 58 26 3 4 30 22 60 39
30 18 105 63 165 101 92 58 175 98 207 100 4 1 24 8 45 16 20 9 51 18 68 20
16 2 40 6 53 9 12 3 31 7 42 9 11 3 25 8 30 11 6 3 10 0 10 -7 0 -9 3 -9 10 2
5 8 10 11 10 5 0 -5 5 -2 11 8 6 9 14 15 20 12 5 -4 9 -2 9 2 0 5 8 9 18 10 9
1 31 4 47 8 45 9 95 16 141 19 23 2 45 5 50 8 17 9 209 -1 284 -16 67 -12 113
-48 202 -158 83 -102 102 -143 107 -235 1 -7 8 -10 18 -6 11 4 14 3 9 -5 -4
-7 -2 -12 3 -12 6 0 11 -5 11 -11 0 -7 10 -21 23 -33 12 -12 30 -45 40 -73 10
-29 29 -65 42 -79 28 -30 45 -80 60 -174 4 -19 8 -44 10 -55 2 -11 6 -42 9
-70 4 -27 8 -69 11 -92 15 -121 29 -1070 16 -1097 -2 -5 -5 -54 -6 -110 -1
-73 -6 -110 -18 -131 -26 -48 -76 -165 -70 -165 3 0 1 -6 -4 -12 -10 -12 -37
-84 -38 -100 0 -3 -3 -10 -7 -14 -5 -4 -8 -17 -8 -29 0 -12 -3 -25 -7 -29 -4
-3 -8 -14 -9 -24 -1 -9 -22 -78 -47 -152 -25 -74 -48 -153 -51 -175 -3 -22 -8
-59 -12 -82 -7 -49 3 -116 17 -108 5 4 9 -1 9 -9 0 -25 19 -19 30 9 6 14 15
37 22 53 6 15 12 29 13 32 3 10 25 60 43 103 17 38 31 73 32 80 0 1 14 40 31
87 17 47 35 102 41 123 6 20 15 37 20 37 6 0 8 7 4 15 -3 8 0 15 6 15 6 0 8 3
5 6 -3 4 -1 16 5 28 7 11 11 24 10 29 -1 4 3 7 9 7 8 0 8 5 -1 15 -9 11 -9 15
-1 15 7 0 9 5 6 10 -4 6 -3 16 2 23 5 7 9 19 8 27 0 8 9 24 21 35 12 11 61 56
110 100 48 44 107 99 131 122 24 24 48 43 54 43 6 0 7 4 4 10 -3 6 -3 10 2 10
4 0 35 25 68 55 32 30 65 55 72 55 7 0 13 7 13 16 0 8 5 12 10 9 6 -3 13 1 16
9 3 9 10 14 14 11 4 -2 18 4 30 15 13 11 26 20 29 20 3 0 19 11 34 25 15 14
27 23 27 20 0 -3 11 2 25 11 14 9 22 20 19 25 -3 5 -2 8 3 7 14 -3 57 14 81
33 19 14 41 17 128 17 58 -1 107 -4 109 -8 2 -3 -5 -42 -16 -86 -15 -57 -19
-94 -15 -134 4 -30 8 -68 10 -85 2 -16 5 -30 6 -30 2 0 5 -30 14 -115 2 -30 5
-55 6 -55 1 0 4 -22 6 -50 3 -27 8 -63 13 -80 4 -16 7 -45 6 -62 0 -18 4 -33
8 -33 5 0 6 -3 4 -7 -11 -19 14 -117 38 -148 14 -19 25 -38 25 -43 0 -6 7 -13
16 -16 9 -4 14 -9 11 -12 -3 -3 2 -14 11 -23 35 -37 57 -66 54 -73 -1 -5 2 -8
7 -8 4 0 23 -28 41 -62 18 -35 50 -88 71 -118 23 -33 40 -71 43 -95 9 -71 17
-129 22 -155 2 -14 6 -52 9 -86 2 -37 12 -76 25 -99 12 -21 19 -44 16 -52 -3
-8 -1 -11 4 -8 6 3 10 1 10 -5 0 -11 60 -41 71 -35 10 7 0 245 -15 350 -2 17
1 36 7 43 8 10 7 12 -3 10 -10 -2 -13 11 -11 52 1 30 4 66 6 80 3 14 7 42 9
62 6 48 49 139 82 171 14 15 49 38 77 52 48 24 52 24 55 8 2 -15 13 -18 75
-17 72 1 112 -10 137 -40 11 -14 -1 -43 -80 -199 -51 -100 -96 -186 -100 -192
-7 -10 -53 -96 -208 -395 -174 -336 -256 -487 -305 -564 -227 -359 -479 -568
-771 -640 -86 -21 -113 -35 -158 -82 -68 -69 -124 -201 -154 -363 -34 -182
-16 -282 64 -350 84 -72 -35 -67 1652 -76 646 -3 1216 -8 1265 -10 279 -12
844 -16 890 -5 126 28 175 128 176 355 0 114 -21 226 -57 297 -35 69 -113 143
-173 163 -27 9 -54 21 -59 28 -5 7 -35 136 -66 287 -32 151 -71 338 -87 415
-16 77 -37 179 -47 227 l-19 87 44 83 c25 46 105 183 179 304 l134 222 53 -3
c105 -7 348 -15 577 -20 129 -3 260 -8 290 -10 82 -6 941 -19 1287 -19 l301
-1 61 -120 c34 -66 128 -249 209 -407 l148 -288 -16 -62 c-9 -35 -19 -70 -22
-78 -4 -12 -123 -449 -132 -485 -1 -5 -11 -42 -21 -80 l-18 -70 -76 -30 c-101
-39 -163 -99 -187 -181 -32 -110 -5 -445 44 -541 27 -53 48 -68 117 -89 57
-18 139 -19 1640 -19 1386 0 2395 8 2505 21 85 9 104 17 151 61 39 37 53 59
69 110 50 162 67 374 37 473 -19 66 -55 102 -182 186 -126 82 -272 202 -390
319 -188 187 -199 202 -415 600 -89 165 -170 314 -180 330 -22 39 -72 130
-123 225 -35 66 -110 203 -170 310 -26 47 -62 113 -131 242 l-57 107 55 55
c61 60 56 58 171 59 214 3 330 -143 371 -467 2 -21 7 -42 9 -47 3 -4 1 -10 -4
-14 -6 -3 -8 -11 -6 -18 10 -29 13 -77 4 -77 -4 0 -7 -6 -4 -12 10 -30 12 -88
3 -88 -5 0 -6 -5 -2 -12 4 -7 9 -26 9 -43 3 -44 15 -146 21 -177 5 -26 7 -27
29 -12 14 9 32 42 49 88 23 66 26 89 26 205 0 98 3 131 13 131 8 0 9 3 1 8
-14 9 -15 152 -1 152 6 0 7 3 4 7 -4 3 -3 11 2 17 11 13 51 165 56 215 2 20 7
52 10 71 4 19 9 46 10 60 6 38 19 124 21 133 1 4 2 19 3 33 1 16 5 23 13 18 7
-5 9 -2 5 9 -3 9 0 18 9 21 8 3 14 11 14 18 0 9 -3 8 -10 -2 -6 -9 -10 -10
-10 -3 0 6 5 15 10 18 15 9 12 27 -2 20 -7 -4 -6 0 3 7 18 14 20 58 5 70 -6 4
-3 48 8 115 27 167 44 292 51 365 3 37 8 77 11 90 8 34 13 75 19 148 8 103 20
140 46 140 5 0 32 11 61 24 29 13 70 27 91 31 20 4 39 11 42 15 2 4 16 6 30 5
14 -2 27 1 31 6 12 19 120 0 176 -31 10 -6 27 -10 38 -10 11 0 20 -4 20 -10 0
-5 4 -10 9 -10 5 0 26 -8 47 -17 22 -9 42 -18 47 -19 4 -1 9 -3 12 -4 3 -1 8
-3 13 -5 4 -1 21 -8 37 -15 17 -7 33 -14 37 -14 4 -1 13 -7 20 -13 6 -7 20
-13 30 -13 10 0 18 -3 18 -7 0 -5 24 -21 53 -37 28 -16 66 -40 83 -53 17 -13
34 -23 38 -23 9 0 69 -42 78 -55 4 -5 8 -6 8 -2 0 11 60 -25 60 -36 0 -4 4 -6
9 -3 4 3 21 -5 37 -19 15 -13 31 -22 35 -19 4 2 15 -3 23 -12 9 -8 16 -12 16
-7 1 12 43 -79 47 -101 2 -10 13 -27 25 -37 11 -11 18 -19 15 -19 -4 0 5 -16
18 -36 14 -20 22 -40 19 -45 -3 -5 -1 -8 5 -7 6 2 24 -19 39 -47 15 -27 30
-51 35 -53 4 -2 7 -8 7 -14 0 -5 12 -28 27 -51 16 -23 33 -50 38 -59 41 -67
150 -218 160 -222 9 -3 12 0 8 10 -3 8 1 22 9 32 18 22 16 54 -7 88 -11 17
-12 24 -4 18 12 -7 12 -5 1 9 -8 9 -10 22 -6 28 4 7 3 9 -2 6 -6 -3 -18 16
-27 43 -10 27 -40 85 -67 130 -28 44 -50 83 -50 87 0 5 -16 33 -34 63 -28 45
-33 58 -24 75 10 17 9 18 -4 8 -12 -11 -17 -9 -26 13 -7 14 -12 33 -13 42 0
11 -2 13 -6 4 -3 -8 -12 -1 -23 20 -10 18 -15 37 -12 42 3 5 0 6 -6 2 -7 -4
-12 -1 -12 8 0 9 -4 16 -8 16 -5 0 -18 17 -30 38 -11 20 -32 49 -45 63 -25 26
-40 59 -42 94 -2 22 -11 50 -26 79 -7 13 -7 16 0 11 8 -4 8 1 2 17 -9 20 -33
122 -37 153 -1 13 -16 90 -28 143 -8 38 -18 102 -15 104 1 2 -4 14 -11 28 -11
21 -21 64 -56 240 -3 14 -7 39 -9 55 -3 17 -11 66 -19 111 -9 44 -16 95 -18
112 -1 18 -5 32 -8 32 -3 0 -5 10 -6 23 -1 33 -14 158 -20 192 -2 17 -5 87 -5
156 l-1 126 51 83 c91 146 167 220 241 235 3 1 25 5 50 9 25 5 56 11 70 14 57
12 274 4 370 -14 19 -4 63 -6 98 -6 48 1 61 -1 56 -11 -5 -8 -2 -7 9 2 9 7 17
9 17 4 0 -5 19 -16 43 -23 23 -8 48 -18 55 -23 6 -5 12 -7 12 -3 0 3 12 1 28
-5 15 -6 34 -12 42 -13 56 -7 137 -45 315 -148 28 -16 66 -36 85 -46 19 -9 37
-20 40 -23 3 -3 20 -11 38 -17 31 -11 32 -10 32 18 0 21 -15 45 -57 89 -31 34
-62 61 -69 61 -7 0 -14 4 -16 9 -2 4 -72 54 -156 110 -83 56 -152 106 -152
111 0 5 -9 7 -20 5 -11 -2 -20 0 -20 5 0 5 -21 19 -47 30 -107 47 -159 77
-195 111 -21 19 -38 38 -38 41 0 4 -15 22 -33 42 -52 56 -86 97 -84 100 1 2
-9 18 -23 36 -14 18 -24 37 -22 42 1 5 -1 7 -6 4 -5 -3 -15 4 -23 16 -8 11
-20 27 -27 34 -7 8 -10 14 -5 14 4 0 -3 7 -15 16 -12 8 -22 24 -22 35 0 10 -4
19 -8 19 -8 0 -36 60 -33 73 0 4 -4 7 -10 7 -6 0 -9 7 -6 14 4 11 1 13 -10 9
-11 -4 -14 -3 -9 6 4 6 4 11 -1 10 -15 -4 -43 13 -43 25 0 7 -13 33 -30 59
-16 26 -27 47 -24 47 4 0 1 6 -5 13 -6 8 -7 18 -3 22 4 5 1 5 -5 1 -12 -6 -15
0 -12 20 0 4 -4 10 -11 14 -6 4 -12 18 -13 31 0 13 -8 29 -16 35 -10 8 -11 13
-3 18 7 4 12 12 12 17 0 6 -4 7 -10 4 -5 -3 -10 -1 -10 4 0 6 8 11 18 12 10 0
12 3 5 6 -7 2 -13 20 -13 39 0 19 -4 34 -8 34 -5 0 -9 7 -9 15 0 8 4 15 9 15
5 0 6 5 3 10 -4 6 -10 8 -14 6 -4 -3 -7 6 -7 20 0 13 5 24 11 24 5 0 2 5 -8
11 -15 9 -16 13 -5 27 7 9 8 13 2 9 -7 -4 -14 0 -18 8 -3 8 0 15 6 15 7 0 6 5
-2 15 -10 12 -10 15 1 15 10 1 8 4 -4 11 -13 8 -15 14 -7 30 8 13 8 19 0 19
-7 0 -8 6 -1 18 7 13 7 22 0 29 -6 6 -11 26 -11 44 0 19 -6 40 -12 48 -9 12
-8 13 7 8 11 -4 16 -3 12 3 -3 5 -8 29 -10 52 -2 24 -5 44 -6 46 -8 10 -1 30
16 47 18 18 160 105 171 105 7 0 88 54 95 63 3 5 9 1 13 -8 3 -10 12 -15 21
-11 8 3 15 0 15 -7 0 -7 5 -4 11 7 9 14 8 20 -2 27 -26 16 21 37 77 36 29 -1
50 1 47 6 -2 4 1 7 7 7 14 0 40 25 40 39 0 6 5 11 11 11 6 0 9 7 5 15 -3 9 0
15 8 15 8 0 16 5 18 10 2 6 13 12 25 14 12 3 31 10 43 16 11 6 25 8 30 5 6 -3
10 -2 10 4 0 5 16 15 34 22 19 7 33 16 30 21 -3 4 4 8 15 8 11 0 22 4 26 9 3
6 14 8 25 6 11 -2 20 0 20 4 0 8 76 29 126 36 16 2 29 4 29 5 0 2 110 12 143
13 17 0 32 3 32 6 0 3 26 7 58 7 94 3 122 8 136 24 10 11 10 20 2 35 -14 24
-24 27 -103 28 -35 1 -63 5 -63 10 0 5 -6 4 -13 -2 -8 -6 -16 -8 -19 -6 -7 7
-215 17 -385 19 -81 0 -133 5 -133 11 0 5 -4 4 -8 -2 -6 -9 -36 -12 -101 -10
-51 1 -94 0 -97 -4 -2 -3 -38 -5 -81 -4 -44 1 -84 -3 -92 -9 -12 -9 -13 -8 -6
4 7 12 6 13 -6 3 -9 -7 -50 -13 -95 -14 -43 -1 -109 -2 -146 -3 -38 0 -68 -5
-68 -10 0 -5 -6 -3 -13 3 -8 6 -17 8 -21 4 -7 -7 -65 -11 -276 -19 -109 -4
-135 -4 -240 -5 -25 0 -90 -2 -145 -5 -55 -2 -146 -5 -203 -7 -56 -3 -105 -7
-109 -11 -3 -3 -12 -1 -20 5 -8 8 -13 8 -13 1 0 -6 -10 -8 -27 -3 -31 8 -135
-8 -145 -23 -4 -6 -8 -7 -8 -3 0 4 -6 3 -12 -3 -51 -43 -74 -60 -80 -60 -4 0
-27 -13 -51 -30 -25 -16 -49 -30 -54 -30 -5 0 -27 -13 -50 -30 -22 -16 -43
-27 -47 -23 -3 3 -6 2 -6 -4 0 -6 -14 -16 -30 -23 -16 -7 -30 -16 -30 -20 0
-4 -19 -18 -42 -30 -24 -12 -45 -26 -48 -30 -3 -4 -39 -26 -80 -49 -41 -24
-82 -49 -91 -57 -8 -8 -21 -14 -27 -14 -7 0 -12 -5 -12 -11 0 -5 -4 -7 -10 -4
-6 3 -10 2 -10 -3 0 -5 -13 -15 -30 -22 -16 -7 -30 -16 -30 -21 0 -5 -4 -9
-10 -9 -12 0 -93 -56 -134 -93 -17 -15 -39 -30 -48 -33 -10 -3 -18 -10 -18
-15 0 -5 -5 -9 -12 -9 -6 0 -27 -12 -47 -27 -20 -16 -39 -27 -43 -25 -5 1 -8
-2 -8 -8 0 -5 -7 -10 -15 -10 -8 0 -15 -4 -15 -10 0 -5 -4 -10 -10 -10 -5 0
-19 -8 -31 -17 -68 -58 -101 -82 -112 -82 -4 0 -19 -13 -32 -27 -14 -15 -28
-25 -31 -22 -3 3 -17 -5 -31 -18 -14 -13 -30 -21 -36 -17 -6 3 -7 1 -3 -5 4
-8 -3 -16 -18 -22 -29 -11 -36 -23 -8 -13 14 5 14 3 -3 -10 -17 -13 -21 -13
-32 2 -12 14 -12 14 -6 -3 4 -13 3 -17 -5 -12 -8 4 -10 2 -6 -8 3 -9 -3 -19
-18 -26 -20 -10 -21 -10 -6 3 10 8 15 17 11 20 -3 4 -13 -1 -22 -11 -9 -10
-24 -21 -34 -25 -10 -4 -16 -11 -13 -16 3 -5 -5 -12 -19 -15 -14 -4 -25 -11
-25 -16 0 -6 -6 -10 -13 -10 -7 0 -20 -8 -29 -17 -9 -10 -33 -31 -54 -48 -20
-16 -48 -40 -61 -52 -13 -13 -27 -23 -31 -23 -4 0 -15 -8 -23 -17 -9 -10 -38
-37 -65 -60 -27 -23 -60 -51 -74 -63 -114 -97 -180 -165 -174 -179 3 -9 10
-60 14 -114 7 -82 5 -109 -11 -170 -11 -39 -22 -80 -24 -91 -2 -10 -12 -44
-21 -75 -10 -31 -18 -60 -19 -66 -2 -5 -21 -80 -45 -165 -23 -85 -43 -162 -45
-170 -6 -20 -42 -151 -61 -220 -8 -30 -21 -76 -27 -102 -7 -25 -16 -48 -20
-50 -15 -6 -120 206 -149 302 -39 124 -39 126 -86 255 -70 194 -78 211 -134
286 -77 105 -243 269 -250 248 -2 -5 -30 40 -62 101 -63 120 -63 127 -16 178
18 19 27 50 45 157 9 52 26 75 55 75 15 0 34 7 41 17 8 9 37 27 64 39 28 13
46 24 41 24 -5 0 -4 6 2 13 17 20 6 86 -17 108 -24 23 -69 25 -77 4 -19 -48
-57 44 -60 145 -1 41 -4 86 -7 100 -3 14 -8 43 -12 65 -9 47 -56 148 -88 188
-21 27 -21 29 -4 39 25 13 62 56 62 71 0 7 -11 23 -24 36 -19 20 -34 25 -75
24 -28 0 -60 -3 -71 -7 -15 -5 -33 6 -76 46 -49 46 -165 117 -206 125 -7 2
-19 4 -25 6 -7 1 -19 6 -25 10 -7 5 -61 19 -120 32 -103 24 -133 39 -133 71 0
14 -32 24 -80 24 -42 0 -55 -8 -64 -37 -4 -14 -18 -24 -39 -29 -17 -3 -41 -12
-52 -19 -11 -7 -38 -16 -60 -20 -21 -4 -57 -16 -78 -27 -21 -10 -46 -17 -54
-14 -11 4 -13 2 -9 -9 3 -10 -1 -15 -13 -15 -20 0 -102 -51 -146 -92 l-30 -28
-375 0 -375 1 -35 33 c-46 43 -144 106 -198 128 -24 9 -68 19 -98 22 -57 7
-99 19 -108 34 -3 4 -7 21 -10 36 -6 36 -5 34 -49 41 -23 4 -37 2 -37 -4 0 -6
-9 -11 -21 -11 -12 0 -17 -4 -13 -11 4 -8 -1 -9 -17 -4 -16 4 -20 3 -11 -3 8
-5 14 -13 14 -17 0 -4 -6 -12 -14 -16 -10 -7 -10 -9 0 -9 7 0 11 -4 7 -9 -5
-9 -20 -10 -100 -12 -30 0 -197 -40 -220 -53 -11 -5 -22 -11 -25 -11 -35 -5
-175 -98 -215 -143 -18 -21 -22 -21 -47 -8 -52 28 -103 19 -135 -23 -18 -24
-12 -61 9 -61 10 0 18 -7 18 -15 0 -8 7 -15 15 -15 20 0 19 -12 -3 -36 -45
-48 -97 -157 -106 -219 -2 -11 -14 -22 -29 -26 -14 -4 -38 -19 -54 -33 -15
-14 -31 -26 -35 -26 -4 0 -17 -18 -28 -41 -30 -58 -35 -200 -8 -229 10 -11 15
-20 11 -20 -4 0 0 -7 11 -15 10 -7 15 -18 12 -23 -3 -6 1 -13 10 -16 10 -4 14
-12 10 -23 -4 -10 -4 -14 0 -11 4 4 14 3 24 -2 9 -5 39 -12 66 -15 39 -5 54
-12 74 -37 14 -17 40 -47 58 -66 31 -34 36 -51 32 -101 -1 -14 -67 -153 -147
-310 -80 -157 -215 -423 -300 -591 -85 -168 -234 -460 -330 -650 -97 -189
-179 -356 -183 -370 -5 -18 -9 -21 -13 -10 -4 12 -241 1137 -263 1250 -3 14
-16 77 -30 140 -18 83 -23 129 -19 167 4 29 6 56 5 59 -1 4 4 10 11 15 10 6 3
17 -26 41 -116 98 -136 115 -160 133 -49 37 -114 90 -138 110 -53 46 -222 177
-233 182 -8 3 -14 11 -14 19 0 8 -9 14 -20 14 -11 0 -20 5 -20 11 0 5 -4 7
-10 4 -5 -3 -10 0 -10 7 0 7 -12 22 -27 32 -14 11 -23 14 -18 6 5 -8 3 -11 -6
-8 -8 3 -13 12 -13 21 1 9 -4 13 -12 10 -8 -3 -27 9 -43 26 -15 16 -31 27 -35
24 -3 -3 -6 -1 -6 5 0 6 -9 14 -20 17 -11 3 -20 14 -20 22 0 9 -3 13 -6 10 -4
-4 -14 1 -23 11 -9 10 -25 25 -37 33 -24 16 -105 83 -144 119 -74 68 -106 95
-240 205 -80 66 -147 123 -148 127 -2 5 -8 6 -13 2 -5 -3 -9 -1 -9 3 0 5 -41
42 -92 83 -50 41 -98 82 -107 90 -9 9 -45 40 -81 70 -35 30 -72 62 -81 70 -61
57 -75 62 -172 61 -63 0 -78 2 -74 13 8 20 -4 28 -20 15 -10 -9 -13 -8 -13 0
0 7 -4 10 -9 7 -5 -3 -12 2 -15 11 -5 12 -10 13 -18 5 -7 -7 -17 -7 -29 -1
-11 5 -28 14 -39 19 -11 6 -27 10 -35 10 -8 0 -15 5 -15 10 0 6 -3 9 -7 9 -24
-4 -43 2 -38 12 4 6 1 10 -6 8 -29 -3 -50 1 -44 11 3 6 -1 7 -9 4 -11 -4 -16
0 -16 12 0 16 -2 17 -10 4 -7 -12 -12 -12 -22 -2 -6 6 -20 12 -30 12 -10 0
-18 4 -18 8 0 4 -10 9 -22 9 -13 1 -24 7 -26 13 -2 5 -7 8 -12 5 -4 -3 -25 3
-46 12 -22 9 -42 16 -46 15 -5 -1 -8 3 -8 9 0 5 -4 8 -9 5 -14 -9 -42 5 -34
17 3 6 1 7 -6 3 -14 -9 -53 2 -46 14 3 4 -4 6 -14 3 -11 -3 -34 2 -53 10 -18
8 -64 25 -103 37 -38 12 -73 27 -77 33 -6 9 -8 8 -8 -2 0 -9 -4 -10 -12 -4 -7
6 -38 18 -68 28 -30 10 -61 22 -67 28 -7 5 -13 6 -13 2 0 -4 -7 -1 -17 6 -9 8
-17 12 -17 10 -1 -5 -134 37 -151 48 -5 3 -17 7 -26 8 -9 1 -37 12 -63 23 -26
11 -51 20 -56 20 -5 0 -21 5 -37 12 -15 6 -31 12 -35 12 -3 1 -10 4 -14 9 -4
4 -17 7 -29 7 -11 0 -25 4 -31 10 -5 5 -18 11 -29 13 -11 1 -24 5 -30 9 -21
13 -236 77 -282 84 -26 4 -54 14 -61 23 -11 14 -11 14 -6 -2 6 -15 3 -16 -21
-7 -15 6 -30 8 -33 5 -3 -2 -11 0 -17 5 -9 7 -19 5 -35 -8z m1896 -1217 c3
-22 -22 -39 -30 -20 -3 9 -2 13 4 10 6 -3 10 4 10 16 0 23 12 19 16 -6z m31
10 c0 -8 -6 -15 -12 -15 -6 0 -12 7 -12 15 0 8 6 15 12 15 6 0 12 -7 12 -15z
m66 -22 c-5 -12 -3 -14 7 -8 14 9 -29 -55 -45 -67 -6 -5 -5 -8 4 -8 9 0 7 -5
-6 -17 -10 -10 -13 -14 -6 -9 8 5 13 4 13 -2 0 -14 -22 -21 -53 -15 -23 4 -25
8 -16 20 7 8 8 13 3 11 -5 -1 -29 1 -54 6 l-45 7 28 15 c25 13 32 25 28 47 -1
5 3 6 9 2 6 -3 7 -12 3 -18 -5 -9 -3 -9 8 -1 14 11 84 27 95 22 3 -2 10 5 15
15 13 22 20 22 12 0z m1466 -486 c8 -10 7 -14 -2 -14 -8 0 -14 6 -14 14 0 7 1
13 2 13 2 0 8 -6 14 -13z m-2491 -456 c11 -7 11 -9 -2 -14 -9 -4 -23 -4 -32 0
-13 5 -13 7 -2 14 7 5 15 9 18 9 3 0 11 -4 18 -9z m-28 -31 c0 -5 -4 -10 -9
-10 -6 0 -13 5 -16 10 -3 6 1 10 9 10 9 0 16 -4 16 -10z m8795 -237 c14 -35
35 -124 35 -148 0 -13 4 -26 9 -29 5 -3 12 -22 15 -41 3 -19 8 -50 12 -67 3
-23 -10 -84 -41 -193 -25 -88 -47 -164 -49 -170 -1 -5 -10 -37 -20 -70 -10
-33 -20 -67 -22 -75 -10 -43 -118 -406 -121 -410 -5 -6 -13 7 -71 115 l-44 80
13 55 c15 64 14 61 22 80 3 8 13 40 21 70 8 30 24 89 35 130 12 41 24 86 27
100 3 14 14 56 25 95 12 38 25 87 30 108 5 21 23 86 40 145 17 59 33 116 35
127 11 58 28 115 35 115 4 0 10 -8 14 -17z m-5576 -468 c49 -236 115 -551 146
-700 31 -148 61 -287 66 -308 9 -35 6 -46 -67 -188 -42 -82 -79 -148 -81 -145
-5 4 -66 253 -79 316 -2 14 -9 39 -14 55 -5 17 -12 41 -14 55 -3 14 -10 45
-17 70 -18 76 -20 84 -23 100 -1 8 -5 22 -8 30 -6 13 -19 69 -44 179 -3 14 -7
28 -9 32 -3 4 -7 24 -11 45 -3 20 -10 48 -15 61 -5 13 -6 23 -4 23 2 0 0 12
-6 28 -21 53 -19 109 6 277 15 94 26 185 26 203 0 17 4 32 8 32 4 0 7 17 6 38
-1 20 1 42 4 47 3 6 6 21 8 35 5 75 23 171 29 155 2 -5 44 -203 93 -440z
m5703 -26 c11 -46 22 -91 24 -99 2 -8 13 -51 24 -95 31 -116 41 -156 47 -193
3 -18 9 -35 14 -38 5 -3 9 -20 9 -38 0 -18 3 -36 7 -40 4 -3 8 -17 10 -29 2
-12 6 -29 10 -37 3 -8 8 -26 10 -40 2 -14 15 -64 29 -112 13 -48 26 -95 27
-105 2 -10 7 -25 10 -33 3 -8 8 -26 10 -40 3 -14 22 -86 42 -160 25 -94 34
-146 30 -170 -4 -19 -8 -44 -10 -55 -10 -59 -112 -315 -125 -315 -3 0 -47 78
-98 173 -51 94 -151 280 -222 412 l-130 239 26 91 c14 49 36 119 47 155 12 36
22 70 22 75 1 6 3 12 4 15 2 3 4 12 6 20 2 8 13 47 25 85 11 39 23 81 26 94 3
14 7 28 10 33 3 4 7 16 9 25 1 10 18 70 35 133 18 63 34 121 37 129 6 23 13 7
35 -80z m-664 -26 c-10 -13 -14 -12 -25 3 -16 22 4 39 24 22 10 -8 11 -14 1
-25z m-5227 -450 c12 -54 24 -102 25 -108 2 -5 5 -19 7 -30 3 -11 19 -76 37
-145 17 -69 33 -134 35 -145 1 -11 3 -20 5 -20 1 0 3 -9 5 -20 2 -11 6 -31 10
-45 3 -14 8 -32 10 -40 2 -8 4 -16 4 -17 1 -2 2 -6 3 -10 1 -5 8 -33 16 -63 7
-30 15 -62 16 -70 2 -8 6 -22 8 -30 3 -8 13 -50 23 -92 l17 -78 -117 -227
c-64 -126 -124 -235 -132 -243 -9 -8 -13 -9 -9 -2 4 6 2 12 -4 12 -7 0 -9 7
-6 16 5 14 4 15 -7 5 -12 -9 -17 -5 -27 20 -8 17 -13 37 -13 44 0 7 -6 11 -14
8 -9 -4 -11 0 -6 13 4 11 3 15 -4 11 -6 -4 -10 1 -9 11 0 9 -5 16 -12 14 -8
-1 -11 2 -7 8 3 6 11 7 17 4 5 -4 2 6 -8 22 -14 21 -15 26 -4 19 13 -8 13 -6
1 8 -7 9 -11 23 -8 31 4 11 1 13 -11 9 -15 -6 -15 -5 -3 10 7 9 10 17 5 17 -4
0 1 7 12 15 19 14 19 14 -2 9 -18 -5 -21 -1 -21 25 0 17 5 28 10 24 6 -4 7 -1
1 8 -4 8 -9 30 -10 49 -1 19 -5 44 -10 54 -6 15 -4 17 6 11 9 -6 11 -4 5 6
-11 16 -14 49 -6 49 3 0 5 22 5 50 -1 27 2 69 6 92 5 24 11 63 14 88 3 25 8
56 11 70 4 14 8 41 10 60 1 19 5 42 8 50 5 13 24 141 43 290 2 19 7 51 10 70
4 19 8 49 11 65 2 17 6 44 9 60 2 17 5 36 6 43 4 33 18 3 39 -85z m2759 -758
c46 -88 109 -209 140 -270 32 -60 92 -177 135 -260 43 -82 97 -186 120 -230
23 -44 84 -160 135 -259 l93 -179 -34 6 c-71 13 -727 29 -1042 25 -180 -1
-327 -1 -327 1 0 9 195 392 460 901 50 96 121 235 158 307 36 73 69 129 73
125 3 -4 44 -79 89 -167z m-1630 -3235 c105 -497 127 -610 122 -610 -13 0
-102 63 -103 74 0 6 -2 18 -4 26 -2 8 -6 24 -8 35 -3 11 -12 47 -21 80 -9 33
-19 78 -22 100 -3 22 -9 42 -13 45 -4 3 -8 12 -9 20 0 16 -8 50 -16 78 -3 9
-7 28 -10 42 -4 23 -21 94 -31 130 -30 109 -29 123 11 216 l38 89 8 -40 c4
-22 30 -150 58 -285z m3335 -98 c-3 -9 -14 -48 -25 -87 -12 -38 -23 -74 -24
-80 -5 -18 -37 -128 -62 -215 -14 -47 -28 -92 -30 -101 -3 -9 -12 -19 -22 -22
-9 -3 -34 -12 -54 -21 l-37 -16 10 33 c11 33 32 110 69 252 12 44 24 87 27 95
3 8 7 20 9 27 1 6 19 76 40 153 l38 142 33 -71 c17 -39 30 -79 28 -89z m-3492
111 c3 -16 8 -39 12 -53 4 -14 8 -34 10 -45 3 -11 9 -40 15 -65 7 -25 13 -52
15 -60 2 -8 8 -35 15 -60 12 -43 16 -62 25 -105 3 -11 11 -43 19 -70 l15 -50
-40 44 c-82 91 -139 257 -124 364 2 18 7 53 10 80 7 52 20 62 28 20z m3555
-220 c31 -87 35 -126 17 -186 -16 -57 -67 -114 -137 -156 l-37 -22 15 52 c9
29 19 62 24 73 4 12 7 23 7 26 0 5 31 115 41 140 3 8 6 17 7 20 23 88 30 110
36 110 3 0 16 -26 27 -57z"/>
<path d="M2735 11459 c-4 -6 -5 -12 -2 -15 2 -3 7 2 10 11 7 17 1 20 -8 4z"/>
</g>
</svg>
